<?xml version="1.0" encoding="utf-8"?>
<!-- Generator: Adobe Illustrator 16.0.2, SVG Export Plug-In . SVG Version: 6.00 Build 0)  -->
<!DOCTYPE svg PUBLIC "-//W3C//DTD SVG 1.1//EN" "http://www.w3.org/Graphics/SVG/1.1/DTD/svg11.dtd">
<svg version="1.1" id="Layer_1" xmlns="http://www.w3.org/2000/svg" xmlns:xlink="http://www.w3.org/1999/xlink" x="0px" y="0px"
	 width="2551.18px" height="2551.18px" viewBox="0 0 2551.18 2551.18" enable-background="new 0 0 2551.18 2551.18"
	 xml:space="preserve">
<g>
	<path fill-rule="evenodd" clip-rule="evenodd" d="M1021,1283.146c0-4.666,0-9.332,0-13.998
		c3.016-14.941,12.665-25.411,23.066-35.76c63.422-63.107,126.687-126.374,189.8-189.791c10.455-10.505,20.965-20.382,36.102-23.418
		c4.666,0,9.332,0,13.998,0c15.17,2.974,25.629,12.937,36.07,23.423c65.006,65.282,130.221,130.354,195.357,195.504
		c2.119,2.12,4.275,4.22,6.212,6.501c23.396,27.54,8.446,70.052-27.05,76.678c-5.305,0.991-10.801,0.958-16.545,1.427
		c0,2.199,0,4.174,0,6.148c0,48.313,0.043,96.625-0.016,144.938c-0.041,33.564-23.734,57.249-57.236,57.308
		c-25.488,0.045-50.979,0.015-76.467,0.007c-12.587-0.004-18.165-5.644-18.168-18.386c-0.009-38.317,0.021-76.634-0.016-114.951
		c-0.016-17.065-10.3-27.318-27.398-27.379c-14.161-0.051-28.335,0.382-42.479-0.112c-17.355-0.607-28.906,11.777-28.649,28.434
		c0.59,38.142,0.198,76.298,0.18,114.448c-0.006,12.277-5.75,17.941-18.115,17.946c-25.156,0.008-50.312,0.011-75.467,0
		c-34.868-0.016-58.268-23.39-58.283-58.262c-0.022-48.146-0.006-96.292-0.006-144.438c0-1.933,0-3.866,0-5.56
		c-0.991-0.344-1.294-0.534-1.601-0.542c-2.497-0.059-4.999,0-7.491-0.13c-18.317-0.954-31.955-9.531-40.554-25.66
		C1023.87,1293.065,1022.715,1287.956,1021,1283.146z"/>
</g>
</svg>
